# xmcd
#
# Track frame offsets: 
#        150
#        11376
#        21883
#        34034
#        45789
#        57903
#        69689
#        86357
#        99217
#
# Disc length: 1536 seconds
#
# Revision: 0
# Processed by: cddbd v1.5.2PL0 Copyright (c) Steve Scherf et al.
# Submitted via: ExactAudioCopy v1.0b1
#
DISCID=5c05fe09
DTITLE=Tortilla Flat - Ha A Good Time with Tortilla Flat
DYEAR=2011
DGENRE=Rock and Roll
TTITLE0=Have A Good Time
TTITLE1=They Call Me (Good) Rockin'
TTITLE2=If We Talk About Music - It's Rhythm And Blue
TTITLE3=I Want To Be Loved
TTITLE4=Sweet Little Girl With A Rosette In Her Hair
TTITLE5=Red Headed Woman
TTITLE6=I'll Take Care Of You
TTITLE7=Sugar Daddy Blues
TTITLE8=Double Date
EXTD=
EXTT0=
EXTT1=
EXTT2=
EXTT3=
EXTT4=
EXTT5=
EXTT6=
EXTT7=
EXTT8=
PLAYORDER=
